<?xml version="1.0" encoding="utf-8"?>
<!-- Generator: Adobe Illustrator 22.0.1, SVG Export Plug-In . SVG Version: 6.00 Build 0)  -->
<svg version="1.1" id="레이어_1" xmlns="http://www.w3.org/2000/svg" xmlns:xlink="http://www.w3.org/1999/xlink" x="0px"
	 y="0px" viewBox="0 0 162.1 65" style="enable-background:new 0 0 162.1 65;" xml:space="preserve">
<style type="text/css">
	.st0{fill:#FFFFFF;}
</style>
<title>Group 102</title>
<desc>Created with Sketch.</desc>
<g id="Desktop">
	<g id="Icons-Copy-4" transform="translate(-352.000000, -4571.000000)">
		<g id="Group-102" transform="translate(352.000000, 4571.000000)">
			<g id="Group-48">
				<rect id="Rectangle-5-Copy-10" class="st0" width="162.1" height="65"/>
			</g>
			<g id="Group" transform="translate(63.000000, 112.000000)">
				<polygon id="Rectangle-path" points="-63,-51.5 -31.5,-51.5 -31.5,-47 -63,-47 				"/>
				<polygon id="Rectangle-path_1_" points="-63,-60.2 -31.5,-60.2 -31.5,-55.6 -63,-55.6 				"/>
				<polygon id="Rectangle-path_2_" points="-54,-68.8 -40.5,-68.8 -40.5,-64.3 -54,-64.3 				"/>
				<polygon id="Rectangle-path_3_" points="-54,-77.4 -40.5,-77.4 -40.5,-72.9 -54,-72.9 				"/>
				<polygon id="Rectangle-path_4_" points="-54,-86.1 -40.5,-86.1 -40.5,-81.6 -54,-81.6 				"/>
				<polygon id="Rectangle-path_5_" points="-54,-94.7 -40.5,-94.7 -40.5,-90.2 -54,-90.2 				"/>
				<rect id="Rectangle-path_6_" x="-63" y="-103.4" width="31.5" height="4.5"/>
				<rect id="Rectangle-path_7_" x="-63" y="-112" width="31.5" height="4.5"/>
				<path id="Shape" d="M-27-55.6h48.5c0.8-1.4,1.4-2.9,1.8-4.5H-27V-55.6z"/>
				<path id="Shape_1_" d="M17.7-77.4H-18v4.5h39.4C20.4-74.6,19.2-76.2,17.7-77.4z"/>
				<path id="Shape_2_" d="M-18-86.1v4.5h35.7c1.5-1.3,2.8-2.8,3.8-4.5H-18z"/>
				<path id="Shape_3_" d="M21.5-103.4H-27v4.5h50.3C22.9-100.4,22.2-102,21.5-103.4z"/>
				<path id="Shape_4_" d="M6.6-112H-27v4.5h45.1C15.1-110.3,11-112,6.6-112z"/>
				<rect id="Rectangle-path_8_" x="-18" y="-94.7" width="13.5" height="4.5"/>
				<path id="Shape_5_" d="M9-90.2h14.1c0.4-1.4,0.6-3,0.6-4.5H9V-90.2z"/>
				<polygon id="Rectangle-path_9_" points="-18,-68.8 -4.5,-68.8 -4.5,-64.3 -18,-64.3 				"/>
				<path id="Shape_6_" d="M9-68.8v4.5h14.7c0-1.6-0.2-3.1-0.6-4.5H9z"/>
				<path id="Shape_7_" d="M-27-47l33.6,0c4.5,0,8.6-1.7,11.6-4.5H-27V-47z"/>
				<polygon id="Rectangle-path_10_" points="27,-51.5 49.5,-51.5 49.5,-47 27,-47 				"/>
				<polygon id="Rectangle-path_11_" points="27,-60.2 49.5,-60.2 49.5,-55.6 27,-55.6 				"/>
				<polygon id="Rectangle-path_12_" points="36,-68.8 49.5,-68.8 49.5,-64.3 36,-64.3 				"/>
				<polygon id="Rectangle-path_13_" points="36,-77.4 49.5,-77.4 49.5,-72.9 36,-72.9 				"/>
				<polygon id="Shape_8_" points="55.8,-103.4 27,-103.4 27,-98.8 57.4,-98.8 				"/>
				<polygon id="Shape_9_" points="52.8,-112 27,-112 27,-107.5 54.4,-107.5 				"/>
				<polygon id="Rectangle-path_14_" points="76.5,-51.5 99.1,-51.5 99.1,-47 76.5,-47 				"/>
				<polygon id="Rectangle-path_15_" points="76.5,-60.2 99.1,-60.2 99.1,-55.6 76.5,-55.6 				"/>
				<polygon id="Rectangle-path_16_" points="76.5,-68.8 90.1,-68.8 90.1,-64.3 76.5,-64.3 				"/>
				<polygon id="Rectangle-path_17_" points="76.5,-77.4 90.1,-77.4 90.1,-72.9 76.5,-72.9 				"/>
				<polygon id="Shape_10_" points="76.5,-81.6 90.1,-81.6 90.1,-86.1 76.5,-86.1 76.5,-86.1 64.3,-86.1 63,-82.4 61.8,-86.1 
					49.5,-86.1 49.5,-86.1 36,-86.1 36,-81.6 49.5,-81.6 49.5,-85.7 51,-81.6 75.1,-81.6 76.5,-85.7 				"/>
				<polygon id="Shape_11_" points="90.1,-94.7 67.3,-94.7 65.7,-90.2 90.1,-90.2 				"/>
				<polygon id="Shape_12_" points="73.3,-112 71.7,-107.5 99.1,-107.5 99.1,-112 				"/>
				<polygon id="Shape_13_" points="63,-47 64.6,-51.5 61.5,-51.5 				"/>
				<polygon id="Shape_14_" points="60.1,-55.6 66,-55.6 67.6,-60.2 58.5,-60.2 				"/>
				<polygon id="Shape_15_" points="57,-64.3 69.1,-64.3 70.7,-68.8 55.4,-68.8 				"/>
				<polygon id="Shape_16_" points="54,-72.9 72.1,-72.9 73.6,-77.4 52.4,-77.4 				"/>
				<polygon id="Shape_17_" points="36,-90.2 60.3,-90.2 58.8,-94.7 36,-94.7 				"/>
				<polygon id="Shape_18_" points="68.7,-98.8 99.1,-98.8 99.1,-103.4 70.3,-103.4 				"/>
			</g>
		</g>
	</g>
</g>
</svg>
